<svg width="19" height="19" viewBox="0 0 19 19" fill="none" xmlns="http://www.w3.org/2000/svg">
<rect width="11.3023" height="11.3023" rx="1.63636" fill="#FBEEA8"/>
<rect x="6.49272" y="6.49313" width="11.7114" height="11.7114" rx="1.84091" fill="#D6BF2C" stroke="#F8F8F8" stroke-width="0.409091"/>
<path d="M2.33805 1.90461C2.21823 1.78479 2.02396 1.78479 1.90414 1.90461C1.78432 2.02443 1.78432 2.2187 1.90414 2.33852L2.33805 1.90461ZM5.39382 5.70111C5.56327 5.70111 5.70064 5.56375 5.70064 5.39429L5.70064 2.63293C5.70064 2.46348 5.56327 2.32611 5.39382 2.32611C5.22437 2.32611 5.087 2.46348 5.087 2.63293V5.08748H2.63246C2.46301 5.08748 2.32564 5.22484 2.32564 5.39429C2.32564 5.56375 2.46301 5.70111 2.63246 5.70111L5.39382 5.70111ZM1.90414 2.33852L5.17687 5.61125L5.61077 5.17734L2.33805 1.90461L1.90414 2.33852Z" fill="#D6BF2C"/>
<path d="M15.1373 8.59091H9.40998C8.95811 8.59091 8.5918 8.95722 8.5918 9.40909V15.1364C8.5918 15.5882 8.95811 15.9545 9.40998 15.9545H15.1373C15.5891 15.9545 15.9554 15.5882 15.9554 15.1364V9.40909C15.9554 8.95722 15.5891 8.59091 15.1373 8.59091Z" stroke="white" stroke-width="0.613636" stroke-linecap="round" stroke-linejoin="round"/>
<path d="M11.0457 11.8636C11.4976 11.8636 11.8639 11.4973 11.8639 11.0455C11.8639 10.5936 11.4976 10.2273 11.0457 10.2273C10.5939 10.2273 10.2275 10.5936 10.2275 11.0455C10.2275 11.4973 10.5939 11.8636 11.0457 11.8636Z" stroke="white" stroke-width="0.613636" stroke-linecap="round" stroke-linejoin="round"/>
<path d="M15.9547 13.5L14.6923 12.2376C14.5388 12.0842 14.3308 11.998 14.1138 11.998C13.8969 11.998 13.6888 12.0842 13.5354 12.2376L9.81836 15.9546" stroke="white" stroke-width="0.613636" stroke-linecap="round" stroke-linejoin="round"/>
</svg>
