<svg width="19" height="19" viewBox="0 0 19 19" fill="none" xmlns="http://www.w3.org/2000/svg">
<rect width="11.3023" height="11.3023" rx="1.63636" fill="#F3DACD"/>
<rect x="6.49272" y="6.49313" width="11.7114" height="11.7114" rx="1.84091" fill="#FF5F38" stroke="#F8F8F8" stroke-width="0.409091"/>
<path d="M2.33805 1.90461C2.21823 1.78479 2.02396 1.78479 1.90414 1.90461C1.78432 2.02443 1.78432 2.2187 1.90414 2.33852L2.33805 1.90461ZM5.39382 5.70111C5.56327 5.70111 5.70064 5.56375 5.70064 5.39429L5.70064 2.63293C5.70064 2.46348 5.56327 2.32611 5.39382 2.32611C5.22437 2.32611 5.087 2.46348 5.087 2.63293V5.08748H2.63246C2.46301 5.08748 2.32564 5.22484 2.32564 5.39429C2.32564 5.56375 2.46301 5.70111 2.63246 5.70111L5.39382 5.70111ZM1.90414 2.33852L5.17687 5.61125L5.61077 5.17734L2.33805 1.90461L1.90414 2.33852Z" fill="#FF5F38"/>
<path d="M10.519 9.04545H12.5972C13.1208 9.04545 13.5599 9.22272 13.9145 9.57726C14.269 9.93181 14.4463 10.3682 14.4463 10.8864C14.4463 11.4045 14.269 11.8409 13.9145 12.1954C13.5599 12.55 13.1208 12.7273 12.5972 12.7273H11.2799V14.7727H10.519V9.04545ZM11.2799 12.0154H12.5972C12.919 12.0154 13.1808 11.9091 13.3826 11.6964C13.5899 11.4727 13.6935 11.2027 13.6935 10.8864C13.6935 10.5591 13.5899 10.2891 13.3826 10.0764C13.1754 9.86363 12.9135 9.75727 12.5972 9.75727H11.2799V12.0154Z" fill="white"/>
</svg>
