<svg width="20" height="20" viewBox="0 0 20 20" fill="none" xmlns="http://www.w3.org/2000/svg">
<rect y="0.181824" width="11.8161" height="11.8161" rx="1.71074" fill="#DCE5FA"/>
<rect x="6.78811" y="6.97009" width="12.2437" height="12.2437" rx="1.92459" fill="#5686E0" stroke="#F8F8F8" stroke-width="0.427686"/>
<path d="M2.44459 2.17301C2.31932 2.04775 2.11623 2.04775 1.99096 2.17301C1.86569 2.29828 1.86569 2.50137 1.99096 2.62664L2.44459 2.17301ZM5.63926 6.14208C5.81641 6.14208 5.96002 5.99847 5.96002 5.82131L5.96002 2.93443C5.96002 2.75728 5.81641 2.61367 5.63926 2.61367C5.46211 2.61367 5.3185 2.75728 5.3185 2.93443L5.3185 5.50055L2.75238 5.50055C2.57523 5.50055 2.43162 5.64416 2.43162 5.82131C2.43162 5.99847 2.57523 6.14208 2.75238 6.14208L5.63926 6.14208ZM1.99096 2.62664L5.41245 6.04813L5.86607 5.5945L2.44459 2.17301L1.99096 2.62664Z" fill="#5686E0"/>
<path d="M12.4006 10.1165L9.66337 16.2752H9.30753L12.0447 10.1165H12.4006ZM17.0081 15.5909H16.3306L15.9406 14.5166H13.785L13.395 15.5909H12.7175L14.5035 10.8008H15.2221L17.0081 15.5909ZM14.8594 11.5604L14.004 13.9212H15.7216L14.8594 11.5604Z" fill="white"/>
</svg>
