<svg width="19" height="19" viewBox="0 0 19 19" fill="none" xmlns="http://www.w3.org/2000/svg">
<rect width="11.3023" height="11.3023" rx="1.63636" fill="#DCE5FA"/>
<rect x="6.49272" y="6.49313" width="11.7114" height="11.7114" rx="1.84091" fill="#5686E0" stroke="#F8F8F8" stroke-width="0.409091"/>
<path d="M2.33805 1.90461C2.21823 1.78479 2.02396 1.78479 1.90414 1.90461C1.78432 2.02443 1.78432 2.2187 1.90414 2.33852L2.33805 1.90461ZM5.39382 5.70111C5.56327 5.70111 5.70064 5.56374 5.70064 5.39429L5.70064 2.63293C5.70064 2.46348 5.56327 2.32611 5.39382 2.32611C5.22437 2.32611 5.087 2.46348 5.087 2.63293V5.08748H2.63246C2.46301 5.08748 2.32564 5.22484 2.32564 5.39429C2.32564 5.56374 2.46301 5.70111 2.63246 5.70111L5.39382 5.70111ZM1.90414 2.33852L5.17687 5.61125L5.61077 5.17734L2.33805 1.90461L1.90414 2.33852Z" fill="#5686E0"/>
<path d="M13.811 13.7991L14.711 10.6818H15.4556L14.1874 14.7727H13.4592L12.5019 11.7454L11.5446 14.7727H10.8165L9.54828 10.6818H10.2928L11.1928 13.7909L12.1583 10.6818H12.8456L13.811 13.7991Z" fill="white"/>
</svg>
