<svg width="19" height="19" viewBox="0 0 19 19" fill="none" xmlns="http://www.w3.org/2000/svg">
<rect x="7.60156" y="7.60128" width="11.3987" height="11.3987" rx="1.65032" fill="#FBEEA8"/>
<path d="M13.6739 13.2354C13.553 13.1145 13.3571 13.1145 13.2363 13.2354C13.1154 13.3562 13.1154 13.5521 13.2363 13.673L13.6739 13.2354ZM16.7557 17.0642C16.9266 17.0642 17.0652 16.9257 17.0652 16.7548L17.0652 13.9699C17.0652 13.799 16.9266 13.6605 16.7557 13.6605C16.5848 13.6605 16.4463 13.799 16.4463 13.9699L16.4463 16.4454L13.9708 16.4454C13.7999 16.4454 13.6614 16.5839 13.6614 16.7548C13.6614 16.9257 13.7999 17.0642 13.9708 17.0642L16.7557 17.0642ZM13.2363 13.673L16.5369 16.9736L16.9745 16.536L13.6739 13.2354L13.2363 13.673Z" fill="#D6BF2C"/>
<rect x="0.79371" y="0.79371" width="11.8113" height="11.8113" rx="1.85661" fill="#D6BF2C" stroke="#F5F5F7" stroke-width="0.41258"/>
<path d="M3.73227 8.35427C3.28394 8.35427 2.9745 8.17824 2.80397 7.82617L3.21242 7.58687C3.30869 7.79041 3.48335 7.89218 3.7364 7.89218C3.90143 7.89218 4.02796 7.8523 4.11597 7.77253C4.20674 7.69002 4.25212 7.5745 4.25212 7.42597V5.41258H4.72659V7.42597C4.72659 7.72302 4.63307 7.95269 4.44604 8.11498C4.26175 8.27451 4.02383 8.35427 3.73227 8.35427ZM5.27719 5.41258H6.34165C6.61395 5.41258 6.84087 5.50334 7.02241 5.68488C7.20669 5.86641 7.29883 6.09196 7.29883 6.36151C7.29883 6.62831 7.20669 6.85386 7.02241 7.03814C6.84087 7.21968 6.61395 7.31044 6.34165 7.31044H5.75166V8.30064H5.27719V5.41258ZM5.75166 6.86486H6.34165C6.48193 6.86486 6.59745 6.8181 6.68822 6.72458C6.77898 6.62831 6.82437 6.50729 6.82437 6.36151C6.82437 6.21573 6.77898 6.09608 6.68822 6.00257C6.59745 5.9063 6.48193 5.85816 6.34165 5.85816H5.75166V6.86486ZM9.05223 6.8071H10.4963V7.00514C10.4963 7.40121 10.3656 7.72577 10.1043 7.97882C9.84576 8.22912 9.5047 8.35427 9.08112 8.35427C8.63553 8.35427 8.26696 8.20987 7.9754 7.92106C7.68659 7.63226 7.54219 7.27744 7.54219 6.85661C7.54219 6.43853 7.68659 6.08508 7.9754 5.79628C8.26696 5.50472 8.62728 5.35894 9.05636 5.35894C9.32316 5.35894 9.56796 5.42083 9.79075 5.5446C10.0163 5.66563 10.191 5.83203 10.3147 6.04382L9.90628 6.27899C9.82926 6.13872 9.71511 6.02732 9.56383 5.9448C9.41255 5.86229 9.2434 5.82103 9.05636 5.82103C8.7538 5.82103 8.50488 5.92005 8.30959 6.11809C8.1143 6.31888 8.01666 6.56643 8.01666 6.86073C8.01666 7.15779 8.1143 7.40396 8.30959 7.59925C8.51038 7.79454 8.76893 7.89218 9.08524 7.89218C9.33829 7.89218 9.54596 7.83305 9.70824 7.71477C9.87052 7.5965 9.97366 7.43559 10.0177 7.23205H9.05223V6.8071Z" fill="white"/>
</svg>
