<svg width="18" height="18" viewBox="0 0 18 18" fill="none" xmlns="http://www.w3.org/2000/svg">
<path fill-rule="evenodd" clip-rule="evenodd" d="M1.63636 0C0.732625 0 0 0.732623 0 1.63636V9.66596C0 10.5697 0.732623 11.3023 1.63636 11.3023H6.69773V16.3636C6.69773 17.2674 7.43035 18 8.33409 18H16.3637C17.2674 18 18.0001 17.2674 18.0001 16.3636V8.33403C18.0001 7.4303 17.2674 6.69767 16.3637 6.69767H11.3023V1.63636C11.3023 0.732625 10.5697 0 9.66596 0H1.63636Z" fill="#FF5F38"/>
<circle cx="7.95376" cy="10.4651" r="0.418605" fill="white"/>
<circle cx="9.20864" cy="9.20932" r="0.418605" fill="white"/>
<circle cx="10.4645" cy="7.95349" r="0.418605" fill="white"/>
<path d="M3.56559 3.13189C3.44577 3.01207 3.2515 3.01207 3.13168 3.13189C3.01186 3.25171 3.01186 3.44598 3.13168 3.5658L3.56559 3.13189ZM7.49261 7.79964C7.66206 7.79964 7.79943 7.66227 7.79943 7.49282L7.79943 4.73146C7.79943 4.56201 7.66206 4.42464 7.49261 4.42464C7.32316 4.42464 7.18579 4.56201 7.18579 4.73146V7.186H4.73124C4.56179 7.186 4.42443 7.32337 4.42443 7.49282C4.42443 7.66227 4.56179 7.79964 4.73124 7.79964L7.49261 7.79964ZM3.13168 3.5658L7.27565 7.70977L7.70956 7.27587L3.56559 3.13189L3.13168 3.5658Z" fill="white"/>
<path d="M14.8114 15.2447C14.9312 15.3645 15.1255 15.3645 15.2453 15.2447C15.3651 15.1248 15.3651 14.9306 15.2453 14.8108L14.8114 15.2447ZM10.8843 10.5769C10.7149 10.5769 10.5775 10.7143 10.5775 10.8837L10.5775 13.6451C10.5775 13.8146 10.7149 13.9519 10.8843 13.9519C11.0538 13.9519 11.1912 13.8146 11.1912 13.6451V11.1906H13.6457C13.8152 11.1906 13.9525 11.0532 13.9525 10.8837C13.9525 10.7143 13.8152 10.5769 13.6457 10.5769L10.8843 10.5769ZM15.2453 14.8108L11.1013 10.6668L10.6674 11.1007L14.8114 15.2447L15.2453 14.8108Z" fill="white"/>
</svg>
