<svg width="19" height="19" viewBox="0 0 19 19" fill="none" xmlns="http://www.w3.org/2000/svg">
<rect x="7.60059" y="7.60126" width="11.3987" height="11.3987" rx="1.65032" fill="#F3DACD"/>
<path d="M13.6719 13.2354C13.5511 13.1145 13.3552 13.1145 13.2343 13.2354C13.1135 13.3562 13.1135 13.5521 13.2343 13.673L13.6719 13.2354ZM16.7538 17.0642C16.9247 17.0642 17.0632 16.9257 17.0632 16.7548L17.0632 13.9699C17.0632 13.799 16.9247 13.6605 16.7538 13.6605C16.5829 13.6605 16.4443 13.799 16.4443 13.9699L16.4443 16.4454L13.9688 16.4454C13.798 16.4454 13.6594 16.5839 13.6594 16.7548C13.6594 16.9257 13.798 17.0642 13.9688 17.0642L16.7538 17.0642ZM13.2343 13.673L16.535 16.9736L16.9726 16.536L13.6719 13.2354L13.2343 13.673Z" fill="#FF5F38"/>
<rect x="0.79371" y="0.79371" width="11.8113" height="11.8113" rx="1.85661" fill="#FF5F38" stroke="#F8F8F8" stroke-width="0.41258"/>
<path d="M4.98607 3.46161H7.08198C7.61008 3.46161 8.05292 3.6404 8.41049 3.99797C8.76806 4.35554 8.94684 4.79562 8.94684 5.31822C8.94684 5.84082 8.76806 6.28091 8.41049 6.63848C8.05292 6.99605 7.61008 7.17483 7.08198 7.17483H5.75347V9.23773H4.98607V3.46161ZM5.75347 6.45694H7.08198C7.40654 6.45694 7.67059 6.34967 7.87413 6.13513C8.08317 5.90959 8.18769 5.63728 8.18769 5.31822C8.18769 4.98816 8.08317 4.71586 7.87413 4.50131C7.66509 4.28677 7.40104 4.1795 7.08198 4.1795H5.75347V6.45694Z" fill="white"/>
</svg>
