<svg width="18" height="18" viewBox="0 0 18 18" fill="none" xmlns="http://www.w3.org/2000/svg">
<path fill-rule="evenodd" clip-rule="evenodd" d="M1.63636 0C0.732625 0 0 0.732623 0 1.63636V9.66596C0 10.5697 0.732623 11.3023 1.63636 11.3023H6.69773V16.3636C6.69773 17.2674 7.43035 18 8.33409 18H16.3637C17.2674 18 18.0001 17.2674 18.0001 16.3636V8.33403C18.0001 7.4303 17.2674 6.69767 16.3637 6.69767H11.3023V1.63636C11.3023 0.732625 10.5697 0 9.66596 0H1.63636Z" fill="#FF5F38"/>
<circle cx="7.95376" cy="10.4651" r="0.418605" fill="white"/>
<circle cx="9.20864" cy="9.20932" r="0.418605" fill="white"/>
<circle cx="10.4645" cy="7.95349" r="0.418605" fill="white"/>
<path d="M7.27621 7.70978C7.39603 7.8296 7.5903 7.8296 7.71012 7.70978C7.82994 7.58996 7.82994 7.3957 7.71012 7.27588L7.27621 7.70978ZM3.34919 3.04204C3.17974 3.04204 3.04237 3.1794 3.04237 3.34885L3.04237 6.11022C3.04237 6.27967 3.17974 6.41704 3.34919 6.41704C3.51864 6.41704 3.65601 6.27967 3.65601 6.11022V3.65567H6.11055C6.28 3.65567 6.41737 3.5183 6.41737 3.34885C6.41737 3.1794 6.28 3.04204 6.11055 3.04204L3.34919 3.04204ZM7.71012 7.27588L3.56614 3.1319L3.13224 3.56581L7.27621 7.70978L7.71012 7.27588Z" fill="white"/>
<path d="M11.1007 10.6668C10.9809 10.547 10.7867 10.547 10.6668 10.6668C10.547 10.7866 10.547 10.9809 10.6668 11.1007L11.1007 10.6668ZM15.0278 15.3345C15.1972 15.3345 15.3346 15.1972 15.3346 15.0277L15.3346 12.2663C15.3346 12.0969 15.1972 11.9595 15.0278 11.9595C14.8583 11.9595 14.7209 12.0969 14.7209 12.2663V14.7209H12.2664C12.0969 14.7209 11.9596 14.8583 11.9596 15.0277C11.9596 15.1972 12.0969 15.3345 12.2664 15.3345L15.0278 15.3345ZM10.6668 11.1007L14.8108 15.2447L15.2447 14.8107L11.1007 10.6668L10.6668 11.1007Z" fill="white"/>
</svg>
