<svg width="19" height="19" viewBox="0 0 19 19" fill="none" xmlns="http://www.w3.org/2000/svg">
<rect x="7.60156" y="7.60127" width="11.3987" height="11.3987" rx="1.65032" fill="#5686E0"/>
<path d="M13.6729 13.2353C13.5521 13.1145 13.3561 13.1145 13.2353 13.2353C13.1145 13.3562 13.1145 13.5521 13.2353 13.673L13.6729 13.2353ZM16.7547 17.0642C16.9256 17.0642 17.0642 16.9257 17.0642 16.7548L17.0642 13.9699C17.0642 13.799 16.9256 13.6604 16.7547 13.6604C16.5838 13.6604 16.4453 13.799 16.4453 13.9699L16.4453 16.4454L13.9698 16.4454C13.7989 16.4454 13.6604 16.5839 13.6604 16.7548C13.6604 16.9257 13.7989 17.0642 13.9698 17.0642L16.7547 17.0642ZM13.2353 13.673L16.5359 16.9736L16.9735 16.536L13.6729 13.2353L13.2353 13.673Z" fill="white"/>
<rect x="0.79371" y="0.79371" width="11.8113" height="11.8113" rx="1.85661" fill="#DCE5FA" stroke="#F8F8F8" stroke-width="0.41258"/>
<path d="M8.14446 8.10229L9.05213 4.95843H9.80303L8.52403 9.08423H7.78964L6.8242 6.03114L5.85876 9.08423H5.12437L3.84537 4.95843H4.59627L5.50394 8.09404L6.47763 4.95843H7.17077L8.14446 8.10229Z" fill="#5686E0"/>
</svg>
