<svg width="105" height="24" viewBox="0 0 105 24" fill="none" xmlns="http://www.w3.org/2000/svg">
<g id="pdfty">
<g id="Union">
<path fill-rule="evenodd" clip-rule="evenodd" d="M24 0H0V24H11.8568L24 11.8568V0ZM5.88679 6H17.7736V12H11.8868V17.8868H5.88679V6Z" fill="#FF5F38"/>
<path d="M20.3774 20.1509C20.2523 20.1509 20.1509 20.2523 20.1509 20.3774V23.7736C20.1509 23.8986 20.2523 24 20.3774 24H23.7736C23.8986 24 24 23.8986 24 23.7736V20.3774C24 20.2523 23.8986 20.1509 23.7736 20.1509H20.3774Z" fill="#FF5F38"/>
</g>
<g id="Pdfty">
<path d="M40.36 3.59998C43.672 3.59998 46.24 6.16798 46.24 9.35998C46.24 12.552 43.672 15.12 40.36 15.12H37.84V20.4H34V3.59998H40.36ZM40.36 11.52C41.536 11.52 42.4 10.584 42.4 9.35998C42.4 8.13598 41.536 7.19998 40.36 7.19998H37.84V11.52H40.36Z" fill="#070707"/>
<path d="M54.8762 3.59998C59.5083 3.59998 63.0363 7.24798 63.0363 12C63.0363 16.752 59.5083 20.4 54.8762 20.4H48.1562V3.59998H54.8762ZM54.8762 16.704C57.5162 16.704 59.3403 14.88 59.3403 12C59.3403 9.11998 57.5162 7.29598 54.8762 7.29598H51.9963V16.704H54.8762Z" fill="#070707"/>
<path d="M75.3953 7.29598H69.0353V10.536H75.2753V14.232H69.0353V20.4H65.1953V3.59998H75.3953V7.29598Z" fill="#070707"/>
<path d="M88.9441 3.59998V7.29598H84.6241V20.4H80.7841V7.29598H76.4641V3.59998H88.9441Z" fill="#070707"/>
<path d="M104.305 3.59998L98.665 13.944V20.4H94.825V13.944L89.185 3.59998H93.553L96.745 10.08L99.937 3.59998H104.305Z" fill="#070707"/>
</g>
</g>
</svg>
